<mxfile host="Electron" modified="2024-03-02T19:58:04.534Z" agent="Mozilla/5.0 (Windows NT 10.0; Win64; x64) AppleWebKit/537.36 (KHTML, like Gecko) draw.io/23.1.5 Chrome/120.0.6099.109 Electron/28.1.0 Safari/537.36" etag="jnr9YM5shtw9fElG1tbY" version="23.1.5" type="device">
  <diagram name="Страница — 1" id="Jd3ROgLqu2yXfFBcxLtp">
    <mxGraphModel dx="1050" dy="621" grid="1" gridSize="10" guides="1" tooltips="1" connect="1" arrows="1" fold="1" page="1" pageScale="1" pageWidth="827" pageHeight="1169" math="0" shadow="0">
      <root>
        <mxCell id="0" />
        <mxCell id="1" parent="0" />
        <mxCell id="7rptUGGe9cWbxSx2jViC-1" value="Менеджеры продаж" style="rounded=0;whiteSpace=wrap;html=1;fillColor=#dae8fc;strokeColor=#6c8ebf;" vertex="1" parent="1">
          <mxGeometry x="85" y="140" width="170" height="60" as="geometry" />
        </mxCell>
        <mxCell id="7rptUGGe9cWbxSx2jViC-2" value="Клиенты" style="rounded=0;whiteSpace=wrap;html=1;fillColor=#dae8fc;strokeColor=#6c8ebf;" vertex="1" parent="1">
          <mxGeometry x="535" y="140" width="170" height="60" as="geometry" />
        </mxCell>
        <mxCell id="7rptUGGe9cWbxSx2jViC-3" value="осущесвляют" style="rhombus;whiteSpace=wrap;html=1;" vertex="1" parent="1">
          <mxGeometry x="80" y="270" width="180" height="80" as="geometry" />
        </mxCell>
        <mxCell id="7rptUGGe9cWbxSx2jViC-4" value="заказывают/делают возврат" style="rhombus;whiteSpace=wrap;html=1;" vertex="1" parent="1">
          <mxGeometry x="530" y="270" width="180" height="80" as="geometry" />
        </mxCell>
        <mxCell id="7rptUGGe9cWbxSx2jViC-5" value="Заказы/возвраты" style="rounded=0;whiteSpace=wrap;html=1;fillColor=#dae8fc;strokeColor=#6c8ebf;" vertex="1" parent="1">
          <mxGeometry x="315" y="540" width="170" height="60" as="geometry" />
        </mxCell>
        <mxCell id="7rptUGGe9cWbxSx2jViC-6" value="подлежат" style="rhombus;whiteSpace=wrap;html=1;" vertex="1" parent="1">
          <mxGeometry x="310" y="400" width="180" height="80" as="geometry" />
        </mxCell>
        <mxCell id="7rptUGGe9cWbxSx2jViC-7" value="Заказ товара" style="rounded=0;whiteSpace=wrap;html=1;fillColor=#dae8fc;strokeColor=#6c8ebf;" vertex="1" parent="1">
          <mxGeometry x="315" y="280" width="170" height="60" as="geometry" />
        </mxCell>
        <mxCell id="7rptUGGe9cWbxSx2jViC-8" value="" style="endArrow=none;html=1;rounded=0;entryX=0.5;entryY=1;entryDx=0;entryDy=0;exitX=0.5;exitY=0;exitDx=0;exitDy=0;" edge="1" parent="1" source="7rptUGGe9cWbxSx2jViC-3" target="7rptUGGe9cWbxSx2jViC-1">
          <mxGeometry width="50" height="50" relative="1" as="geometry">
            <mxPoint x="390" y="350" as="sourcePoint" />
            <mxPoint x="440" y="300" as="targetPoint" />
          </mxGeometry>
        </mxCell>
        <mxCell id="7rptUGGe9cWbxSx2jViC-9" value="" style="endArrow=none;html=1;rounded=0;entryX=0.5;entryY=1;entryDx=0;entryDy=0;exitX=0.5;exitY=0;exitDx=0;exitDy=0;" edge="1" parent="1">
          <mxGeometry width="50" height="50" relative="1" as="geometry">
            <mxPoint x="619.5" y="270" as="sourcePoint" />
            <mxPoint x="619.5" y="200" as="targetPoint" />
          </mxGeometry>
        </mxCell>
        <mxCell id="7rptUGGe9cWbxSx2jViC-10" value="" style="endArrow=none;html=1;rounded=0;exitX=0.5;exitY=0;exitDx=0;exitDy=0;entryX=0.5;entryY=1;entryDx=0;entryDy=0;" edge="1" parent="1" target="7rptUGGe9cWbxSx2jViC-7">
          <mxGeometry width="50" height="50" relative="1" as="geometry">
            <mxPoint x="399.5" y="400" as="sourcePoint" />
            <mxPoint x="400" y="350" as="targetPoint" />
          </mxGeometry>
        </mxCell>
        <mxCell id="7rptUGGe9cWbxSx2jViC-12" value="" style="endArrow=none;html=1;rounded=0;entryX=0.5;entryY=1;entryDx=0;entryDy=0;exitX=0.5;exitY=0;exitDx=0;exitDy=0;" edge="1" parent="1" source="7rptUGGe9cWbxSx2jViC-5">
          <mxGeometry width="50" height="50" relative="1" as="geometry">
            <mxPoint x="520" y="480" as="sourcePoint" />
            <mxPoint x="399.5" y="480" as="targetPoint" />
          </mxGeometry>
        </mxCell>
        <mxCell id="7rptUGGe9cWbxSx2jViC-13" value="" style="endArrow=none;html=1;rounded=0;entryX=0;entryY=0.5;entryDx=0;entryDy=0;exitX=1;exitY=0.5;exitDx=0;exitDy=0;" edge="1" parent="1" source="7rptUGGe9cWbxSx2jViC-7" target="7rptUGGe9cWbxSx2jViC-4">
          <mxGeometry width="50" height="50" relative="1" as="geometry">
            <mxPoint x="390" y="350" as="sourcePoint" />
            <mxPoint x="440" y="300" as="targetPoint" />
          </mxGeometry>
        </mxCell>
        <mxCell id="7rptUGGe9cWbxSx2jViC-14" value="" style="endArrow=none;html=1;rounded=0;entryX=0;entryY=0.5;entryDx=0;entryDy=0;exitX=1;exitY=0.5;exitDx=0;exitDy=0;" edge="1" parent="1" source="7rptUGGe9cWbxSx2jViC-3" target="7rptUGGe9cWbxSx2jViC-7">
          <mxGeometry width="50" height="50" relative="1" as="geometry">
            <mxPoint x="150" y="540" as="sourcePoint" />
            <mxPoint x="200" y="490" as="targetPoint" />
          </mxGeometry>
        </mxCell>
        <mxCell id="7rptUGGe9cWbxSx2jViC-15" value="&lt;b&gt;1&lt;/b&gt;" style="text;html=1;align=center;verticalAlign=middle;resizable=0;points=[];autosize=1;strokeColor=none;fillColor=none;" vertex="1" parent="1">
          <mxGeometry x="140" y="200" width="30" height="30" as="geometry" />
        </mxCell>
        <mxCell id="7rptUGGe9cWbxSx2jViC-16" value="&lt;b&gt;1&lt;/b&gt;" style="text;html=1;align=center;verticalAlign=middle;resizable=0;points=[];autosize=1;strokeColor=none;fillColor=none;" vertex="1" parent="1">
          <mxGeometry x="590" y="200" width="30" height="30" as="geometry" />
        </mxCell>
        <mxCell id="7rptUGGe9cWbxSx2jViC-17" value="&lt;b&gt;N&lt;/b&gt;" style="text;html=1;align=center;verticalAlign=middle;resizable=0;points=[];autosize=1;strokeColor=none;fillColor=none;" vertex="1" parent="1">
          <mxGeometry x="285" y="280" width="30" height="30" as="geometry" />
        </mxCell>
        <mxCell id="7rptUGGe9cWbxSx2jViC-18" value="&lt;b&gt;N&lt;/b&gt;" style="text;html=1;align=center;verticalAlign=middle;resizable=0;points=[];autosize=1;strokeColor=none;fillColor=none;" vertex="1" parent="1">
          <mxGeometry x="485" y="280" width="30" height="30" as="geometry" />
        </mxCell>
        <mxCell id="7rptUGGe9cWbxSx2jViC-19" value="&lt;b&gt;N&lt;/b&gt;" style="text;html=1;align=center;verticalAlign=middle;resizable=0;points=[];autosize=1;strokeColor=none;fillColor=none;" vertex="1" parent="1">
          <mxGeometry x="399" y="340" width="30" height="30" as="geometry" />
        </mxCell>
        <mxCell id="7rptUGGe9cWbxSx2jViC-20" value="&lt;b&gt;1&lt;/b&gt;" style="text;html=1;align=center;verticalAlign=middle;resizable=0;points=[];autosize=1;strokeColor=none;fillColor=none;" vertex="1" parent="1">
          <mxGeometry x="369" y="510" width="30" height="30" as="geometry" />
        </mxCell>
        <mxCell id="7rptUGGe9cWbxSx2jViC-24" value="&lt;b style=&quot;border-color: var(--border-color); font-size: 15px;&quot;&gt;Концептуальная&amp;nbsp;модель данных&amp;nbsp;Superstore&lt;/b&gt;&lt;br style=&quot;border-color: var(--border-color); font-size: 15px;&quot;&gt;Гадильшина Валентина Евгеньевна" style="rounded=1;whiteSpace=wrap;html=1;fillColor=#e1d5e7;strokeColor=#9673a6;" vertex="1" parent="1">
          <mxGeometry x="180" y="20" width="450" height="60" as="geometry" />
        </mxCell>
      </root>
    </mxGraphModel>
  </diagram>
</mxfile>
